<svg width="19" height="20" viewBox="0 0 19 20" fill="none" xmlns="http://www.w3.org/2000/svg">
<path d="M14.51 7.27C13.23 2 9.88 0.14 9.74 0.0599999C9.66614 0.0206061 9.58371 0 9.5 0C9.41629 0 9.33386 0.0206061 9.26 0.0599999C9.09 0.16 5.73 2.06 4.47 7.29C3.26 8.28 0 11.16 0 13.5C0 13.6326 0.0526785 13.7598 0.146447 13.8536C0.240215 13.9473 0.367392 14 0.5 14H4V15.5C4 15.6326 4.05268 15.7598 4.14645 15.8536C4.24021 15.9473 4.36739 16 4.5 16H14.5C14.6326 16 14.7598 15.9473 14.8536 15.8536C14.9473 15.7598 15 15.6326 15 15.5V14H18.5C18.6326 14 18.7598 13.9473 18.8536 13.8536C18.9473 13.7598 19 13.6326 19 13.5C19 11.15 15.71 8.26 14.51 7.27ZM10.5 13H8.5C8.36739 13 8.24021 12.9473 8.14645 12.8536C8.05268 12.7598 8 12.6326 8 12.5C8 12.3674 8.05268 12.2402 8.14645 12.1464C8.24021 12.0527 8.36739 12 8.5 12H10.5C10.6326 12 10.7598 12.0527 10.8536 12.1464C10.9473 12.2402 11 12.3674 11 12.5C11 12.6326 10.9473 12.7598 10.8536 12.8536C10.7598 12.9473 10.6326 13 10.5 13ZM9.5 11C9.00555 11 8.5222 10.8534 8.11107 10.5787C7.69995 10.304 7.37952 9.91352 7.1903 9.45671C7.00108 8.99989 6.95157 8.49723 7.04804 8.01227C7.1445 7.52732 7.3826 7.08186 7.73223 6.73223C8.08186 6.3826 8.52732 6.1445 9.01227 6.04804C9.49723 5.95157 9.99989 6.00108 10.4567 6.1903C10.9135 6.37952 11.304 6.69995 11.5787 7.11107C11.8534 7.5222 12 8.00555 12 8.5C12 9.16304 11.7366 9.79893 11.2678 10.2678C10.7989 10.7366 10.163 11 9.5 11ZM13.5 17C13.3674 17 13.2402 17.0527 13.1464 17.1464C13.0527 17.2402 13 17.3674 13 17.5V18.5C13 18.6326 13.0527 18.7598 13.1464 18.8536C13.2402 18.9473 13.3674 19 13.5 19C13.6326 19 13.7598 18.9473 13.8536 18.8536C13.9473 18.7598 14 18.6326 14 18.5V17.5C14 17.3674 13.9473 17.2402 13.8536 17.1464C13.7598 17.0527 13.6326 17 13.5 17ZM5.5 17C5.36739 17 5.24021 17.0527 5.14645 17.1464C5.05268 17.2402 5 17.3674 5 17.5V18.5C5 18.6326 5.05268 18.7598 5.14645 18.8536C5.24021 18.9473 5.36739 19 5.5 19C5.63261 19 5.75979 18.9473 5.85355 18.8536C5.94732 18.7598 6 18.6326 6 18.5V17.5C6 17.3674 5.94732 17.2402 5.85355 17.1464C5.75979 17.0527 5.63261 17 5.5 17ZM9.17 19.87C9.25915 19.9544 9.37724 20.0014 9.5 20.0014C9.62276 20.0014 9.74085 19.9544 9.83 19.87C10.677 19.0733 11.3274 18.0909 11.73 17H7.27C7.67261 18.0909 8.32302 19.0733 9.17 19.87Z" fill="url(#paint0_linear_2_4541)"/>
<defs>
<linearGradient id="paint0_linear_2_4541" x1="9.5" y1="0" x2="9.5" y2="20.0014" gradientUnits="userSpaceOnUse">
<stop stop-color="#6200EE"/>
<stop offset="1"/>
</linearGradient>
</defs>
</svg>
