<svg width="20" height="17" viewBox="0 0 20 17" fill="none" xmlns="http://www.w3.org/2000/svg">
<path d="M16.4 14.4H3.6C2.9384 14.4 2.4 14.9384 2.4 15.6C2.4 16.2616 2.9384 16.8 3.6 16.8H16.4C17.0616 16.8 17.6 16.2616 17.6 15.6C17.6 14.9384 17.0616 14.4 16.4 14.4ZM18.4 2.4C17.5176 2.4 16.8 3.11762 16.8 4C16.8 4.59281 17.128 5.10559 17.6088 5.38238C16.6832 7.57437 15.2392 8.91918 13.8896 8.79758C12.3888 8.67519 11.1648 6.90078 10.4896 3.93199C11.3552 3.71277 12 2.93277 12 2C12 0.896797 11.1032 0 9.99996 0C8.89676 0 7.99996 0.896797 7.99996 2C7.99996 2.93281 8.64477 3.71281 9.51035 3.93199C8.83516 6.90078 7.61113 8.67519 6.11035 8.79758C4.76637 8.91918 3.31594 7.57437 2.39117 5.38238C2.87195 5.10559 3.19996 4.59277 3.19996 4C3.19996 3.11762 2.48234 2.4 1.59996 2.4C0.717617 2.4 0 3.11762 0 4C0 4.82082 0.623984 5.49121 1.42078 5.58238L2.9616 13.6H17.0384L18.5792 5.58238C19.376 5.49121 20 4.82082 20 4C20 3.11762 19.2824 2.4 18.4 2.4Z" fill="url(#paint0_linear_2_4546)"/>
<defs>
<linearGradient id="paint0_linear_2_4546" x1="10" y1="0" x2="10" y2="16.8" gradientUnits="userSpaceOnUse">
<stop stop-color="#6200EE"/>
<stop offset="1"/>
</linearGradient>
</defs>
</svg>
